<?xml version="1.0" standalone="no"?>
<!DOCTYPE svg PUBLIC "-//W3C//DTD SVG 20010904//EN"
 "http://www.w3.org/TR/2001/REC-SVG-20010904/DTD/svg10.dtd">
<svg version="1.0" xmlns="http://www.w3.org/2000/svg"
 width="512.000000pt" height="512.000000pt" viewBox="0 0 512.000000 512.000000"
 preserveAspectRatio="xMidYMid meet">

<g transform="translate(0.000000,512.000000) scale(0.100000,-0.100000)"
fill="#000000" stroke="none">
<path d="M240 4216 c-90 -24 -172 -95 -214 -185 l-21 -46 0 -1425 0 -1425 28
-56 c32 -66 99 -132 165 -162 l47 -22 2315 0 2315 0 47 22 c66 30 133 96 165
162 l28 56 0 1425 0 1425 -28 56 c-32 66 -99 132 -165 162 l-47 22 -2295 2
c-1792 1 -2305 -1 -2340 -11z m4626 -240 l34 -34 0 -1382 0 -1382 -34 -34 -34
-34 -2272 0 -2272 0 -34 34 -34 34 0 1382 0 1382 34 34 34 34 2272 0 2272 0
34 -34z"/>
<path d="M1327 3750 c-220 -39 -397 -215 -469 -465 -32 -113 -32 -306 0 -418
39 -136 68 -177 126 -177 20 0 30 -9 47 -42 33 -65 93 -149 133 -187 20 -19
36 -42 36 -50 0 -31 -59 -117 -97 -143 -46 -31 -88 -44 -171 -53 -186 -19
-332 -155 -362 -336 -5 -35 -10 -154 -10 -264 0 -230 8 -261 70 -282 26 -9
244 -12 841 -12 444 -1 820 2 838 5 17 4 42 18 56 32 l26 26 -3 270 c-3 270
-3 271 -30 328 -35 75 -104 148 -176 185 -65 35 -84 40 -189 53 -118 15 -193
70 -226 163 l-12 37 56 60 c31 33 71 87 88 120 27 49 37 60 58 60 50 0 126
115 170 256 14 45 18 90 18 189 -1 116 -4 139 -29 210 -82 237 -247 377 -471
399 -27 3 -72 12 -99 20 -62 20 -158 27 -219 16z m178 -207 c22 -8 74 -19 116
-23 43 -4 93 -17 117 -29 128 -65 212 -213 212 -373 l0 -71 -30 41 c-72 100
-214 202 -281 202 -47 0 -74 -22 -107 -90 -39 -78 -62 -91 -179 -101 -109 -9
-191 -34 -264 -79 -27 -16 -51 -30 -54 -30 -12 0 -4 181 10 234 53 204 195
334 365 335 30 0 73 -7 95 -16z m222 -526 c16 -18 39 -50 52 -71 23 -37 23
-38 8 -101 -50 -201 -195 -340 -333 -321 -96 13 -183 86 -240 201 -49 100 -48
114 4 143 32 18 67 26 146 33 56 5 122 15 144 23 53 19 128 70 148 102 22 32
36 30 71 -9z m-127 -743 c20 -42 55 -89 93 -126 l61 -60 -24 -45 c-100 -188
-395 -187 -506 2 l-25 43 60 57 c36 34 73 83 93 121 l33 63 90 4 c49 1 91 4
91 5 1 1 16 -28 34 -64z m-554 -310 c66 -130 213 -232 366 -255 91 -13 198 4
286 47 77 38 173 132 213 208 l33 63 45 -4 c70 -7 105 -21 140 -55 62 -60 66
-76 69 -270 l4 -178 -722 0 -722 0 4 183 c3 171 4 184 27 220 33 54 90 88 158
96 32 4 61 6 64 4 4 -1 19 -28 35 -59z"/>
<path d="M2979 3241 c-23 -23 -29 -38 -29 -71 0 -52 13 -76 50 -95 25 -13 115
-15 644 -15 l614 0 31 26 c32 26 48 76 37 112 -4 11 -18 32 -33 46 l-26 26
-629 0 -630 0 -29 -29z"/>
<path d="M3014 2660 c-66 -27 -84 -117 -35 -172 l29 -33 616 -3 c539 -2 620
-1 646 13 32 16 60 61 60 95 0 34 -28 78 -60 95 -25 13 -112 15 -632 14 -332
0 -613 -4 -624 -9z"/>
<path d="M2998 2044 c-36 -19 -48 -43 -48 -94 0 -33 6 -48 29 -71 l29 -29 630
0 629 0 26 26 c15 14 29 35 33 46 11 36 -5 86 -37 112 l-31 26 -616 0 c-525
-1 -621 -3 -644 -16z"/>
</g>
</svg>
