<?xml version="1.0" standalone="no"?>
<!DOCTYPE svg PUBLIC "-//W3C//DTD SVG 20010904//EN"
 "http://www.w3.org/TR/2001/REC-SVG-20010904/DTD/svg10.dtd">
<svg version="1.0" xmlns="http://www.w3.org/2000/svg"
 width="512.000000pt" height="512.000000pt" viewBox="0 0 512.000000 512.000000"
 preserveAspectRatio="xMidYMid meet">

<g transform="translate(0.000000,512.000000) scale(0.100000,-0.100000)"
fill="#000000" stroke="none">
<path d="M230 4831 c-83 -26 -159 -90 -201 -171 l-24 -45 0 -1635 0 -1635 28
-57 c33 -67 80 -111 157 -147 l55 -26 803 -3 804 -3 -4 -157 c-3 -145 -5 -161
-30 -214 -35 -76 -95 -138 -170 -179 l-63 -34 -240 -5 c-261 -6 -272 -8 -305
-63 -36 -58 -18 -126 40 -161 26 -15 154 -16 1482 -16 1162 1 1458 3 1476 14
33 18 62 66 62 101 0 36 -31 89 -62 107 -16 9 -92 14 -263 18 l-240 5 -63 34
c-75 41 -135 103 -170 179 -25 53 -27 69 -30 214 l-4 157 804 3 c661 3 809 6
838 17 57 23 119 70 151 114 63 87 59 -15 57 1757 l-3 1615 -27 50 c-32 60
-87 114 -148 146 l-45 24 -2320 2 c-1276 1 -2331 -2 -2345 -6z m4632 -248 c17
-15 18 -64 18 -1160 l0 -1143 -2320 0 -2320 0 0 1142 c0 1048 1 1143 17 1160
15 17 100 18 2301 18 2113 0 2287 -1 2304 -17z m18 -2868 c0 -321 0 -324 -22
-345 l-22 -20 -2276 0 -2276 0 -22 20 c-22 21 -22 24 -22 345 l0 325 2320 0
2320 0 0 -325z m-1850 -735 c0 -186 33 -326 100 -420 11 -15 20 -31 20 -34 0
-3 -265 -6 -590 -6 -324 0 -590 3 -590 6 0 3 9 19 20 34 67 94 100 234 100
420 l0 130 470 0 470 0 0 -130z"/>
<path d="M2625 4049 c-31 -17 -865 -851 -881 -881 -32 -60 -9 -134 52 -163 78
-37 67 -45 541 428 240 239 440 447 449 466 44 92 -70 199 -161 150z"/>
<path d="M3125 3566 c-16 -8 -112 -96 -211 -197 -200 -203 -210 -219 -177
-287 23 -48 76 -77 124 -68 28 5 71 43 232 204 187 188 197 200 197 236 0 49
-26 92 -66 111 -39 18 -60 18 -99 1z"/>
<path d="M2475 1787 c-43 -43 -53 -92 -29 -142 45 -96 178 -97 227 -2 26 50
16 100 -28 144 -29 29 -39 33 -85 33 -46 0 -56 -4 -85 -33z"/>
</g>
</svg>
