<?xml version="1.0" standalone="no"?>
<!DOCTYPE svg PUBLIC "-//W3C//DTD SVG 20010904//EN"
 "http://www.w3.org/TR/2001/REC-SVG-20010904/DTD/svg10.dtd">
<svg version="1.0" xmlns="http://www.w3.org/2000/svg"
 width="512.000000pt" height="512.000000pt" viewBox="0 0 512.000000 512.000000"
 preserveAspectRatio="xMidYMid meet">

<g transform="translate(0.000000,512.000000) scale(0.100000,-0.100000)"
fill="#000000" stroke="none">
<path d="M1983 5038 c-12 -6 -27 -23 -33 -39 -11 -24 -6 -51 31 -191 47 -178
64 -208 119 -208 37 0 80 39 80 72 -1 13 -20 95 -44 183 -33 118 -50 164 -66
177 -25 20 -54 22 -87 6z"/>
<path d="M4170 5032 c-16 -13 -33 -59 -66 -177 -24 -88 -43 -170 -44 -183 0
-33 43 -72 80 -72 54 0 71 30 119 208 37 140 41 167 31 191 -20 48 -80 65
-120 33z"/>
<path d="M2485 4587 c-428 -248 -614 -360 -622 -378 -10 -18 -13 -188 -13
-726 l0 -702 23 -25 c29 -32 1203 -709 1239 -714 21 -3 53 10 121 49 692 397
1116 644 1132 660 20 19 20 34 22 727 2 549 0 712 -10 731 -8 16 -85 67 -222
146 -864 500 -1014 585 -1036 585 -13 -1 -298 -159 -634 -353z m1148 -116
c274 -158 499 -292 498 -297 0 -15 -234 -145 -252 -141 -12 3 -1001 569 -1017
582 -5 4 244 144 258 144 8 0 239 -129 513 -288z m-414 -247 c274 -159 498
-292 495 -295 -2 -3 -40 -27 -85 -53 -70 -41 -85 -46 -105 -37 -23 10 -632
360 -883 506 -121 72 -123 73 -100 88 96 60 146 85 161 82 10 -1 242 -133 517
-291z m-350 -196 c278 -160 507 -292 509 -293 2 -2 -56 -37 -128 -78 l-131
-76 -47 28 c-26 16 -198 115 -382 221 -536 309 -592 342 -583 350 15 14 238
140 247 140 5 0 237 -131 515 -292z m-338 -290 l508 -293 1 -593 0 -593 -21
11 c-18 10 -537 309 -896 517 l-113 65 0 589 c0 324 3 589 6 589 4 0 235 -132
515 -292z m1699 -297 l0 -589 -507 -293 c-280 -160 -511 -294 -515 -296 -5 -2
-8 263 -8 589 l1 593 127 72 127 71 5 -215 5 -215 28 -24 c33 -28 47 -30 90
-8 93 48 348 199 364 216 16 18 19 48 23 284 l5 264 120 70 c66 38 123 69 128
69 4 1 7 -264 7 -588z m-420 175 l0 -175 -86 -50 c-47 -28 -90 -51 -95 -51 -5
0 -9 76 -9 173 l0 172 88 52 c48 28 90 52 95 52 4 1 7 -77 7 -173z"/>
<path d="M1345 4545 c-31 -30 -32 -66 -2 -100 12 -14 85 -62 162 -106 115 -66
145 -79 170 -74 57 10 83 74 50 122 -21 30 -296 183 -329 183 -15 0 -37 -10
-51 -25z"/>
<path d="M4675 4490 c-77 -44 -148 -89 -157 -101 -38 -45 -12 -114 47 -124 25
-5 55 8 170 74 148 85 185 116 185 157 0 34 -42 74 -77 74 -16 0 -86 -33 -168
-80z"/>
<path d="M1405 3829 c-109 -30 -145 -44 -162 -64 -29 -32 -29 -65 -2 -99 28
-36 57 -34 236 14 117 31 153 45 171 65 28 32 28 65 1 99 -28 36 -69 33 -244
-15z"/>
<path d="M4591 3844 c-28 -35 -27 -75 2 -102 26 -24 294 -102 352 -102 38 0
75 37 75 76 0 51 -36 72 -195 114 -180 48 -206 49 -234 14z"/>
<path d="M1730 2130 c-58 -9 -181 -50 -241 -81 -20 -10 -189 -106 -375 -214
-185 -107 -338 -194 -339 -193 -2 2 -17 29 -35 60 -56 101 -127 145 -220 136
-36 -4 -83 -24 -187 -82 -76 -43 -151 -90 -167 -104 -62 -58 -82 -151 -47
-227 10 -22 174 -317 365 -655 244 -432 358 -625 383 -648 44 -39 102 -56 161
-48 45 6 285 134 344 184 40 34 68 95 68 154 0 36 -10 65 -46 133 -25 48 -44
88 -42 89 2 2 32 20 66 40 l64 36 521 -139 c647 -174 634 -171 737 -171 106 0
190 20 278 64 116 59 1595 973 1635 1011 21 20 51 62 65 93 23 49 27 70 27
152 0 84 -3 102 -28 152 -75 152 -240 211 -448 159 -120 -30 -196 -70 -681
-352 -407 -237 -534 -306 -543 -297 -2 2 3 24 12 48 39 112 8 245 -76 329 -54
54 -102 77 -213 101 -146 32 -325 86 -563 170 -121 43 -238 83 -260 89 -62 16
-154 20 -215 11z m295 -207 c357 -124 464 -158 624 -199 96 -24 185 -51 198
-60 86 -56 83 -213 -4 -257 -74 -38 -114 -32 -470 68 -227 63 -253 66 -282 29
-27 -34 -27 -67 2 -99 18 -20 58 -35 202 -75 458 -128 591 -149 749 -115 98
21 142 43 611 317 231 135 457 264 503 287 240 121 418 85 430 -86 3 -46 -1
-67 -20 -103 -22 -43 -53 -63 -808 -527 -432 -266 -801 -490 -820 -499 -57
-28 -131 -44 -202 -44 -74 0 -90 4 -815 198 -503 135 -457 130 -572 62 -37
-22 -72 -40 -78 -40 -10 0 -413 701 -413 717 1 11 671 396 746 429 82 36 169
54 234 48 30 -3 114 -26 185 -51z m-1459 -251 c16 -10 714 -1247 714 -1265 0
-21 -24 -38 -152 -111 -123 -69 -138 -75 -157 -52 -20 24 -711 1250 -711 1261
0 21 18 34 140 104 123 70 144 78 166 63z"/>
<path d="M442 1505 c-38 -32 -46 -65 -28 -110 17 -41 71 -69 111 -59 32 8 75
59 75 89 0 58 -47 105 -104 105 -13 0 -38 -11 -54 -25z"/>
</g>
</svg>
