<?xml version="1.0" standalone="no"?>
<!DOCTYPE svg PUBLIC "-//W3C//DTD SVG 20010904//EN"
 "http://www.w3.org/TR/2001/REC-SVG-20010904/DTD/svg10.dtd">
<svg version="1.0" xmlns="http://www.w3.org/2000/svg"
 width="512.000000pt" height="512.000000pt" viewBox="0 0 512.000000 512.000000"
 preserveAspectRatio="xMidYMid meet">

<g transform="translate(0.000000,512.000000) scale(0.100000,-0.100000)"
fill="#000000" stroke="none">
<path d="M1755 5110 c-42 -13 -904 -526 -938 -558 -50 -46 -71 -99 -71 -172 1
-59 11 -92 117 -360 l117 -294 -55 -86 c-45 -72 -127 -221 -137 -251 -2 -5
-141 -29 -309 -54 -169 -24 -319 -49 -333 -55 -45 -17 -87 -53 -114 -100 l-27
-45 -3 -553 c-2 -356 1 -566 8 -591 15 -56 62 -116 112 -139 31 -16 131 -34
353 -67 170 -25 310 -47 311 -48 1 -1 18 -36 39 -77 20 -41 63 -118 96 -171
l58 -95 -116 -295 c-108 -273 -116 -299 -117 -364 -1 -77 13 -113 62 -161 37
-36 887 -541 945 -561 26 -10 60 -13 91 -9 92 10 117 35 325 308 l193 253 197
1 198 1 193 -254 c209 -275 234 -299 326 -309 31 -4 65 -1 91 9 61 21 300 165
323 195 31 38 27 97 -9 133 -49 49 -88 42 -248 -45 -75 -41 -140 -73 -145 -70
-4 3 -98 123 -208 268 -110 145 -207 269 -216 277 -13 10 -77 14 -298 14 -154
1 -289 -3 -298 -7 -10 -5 -115 -132 -235 -283 -159 -202 -221 -274 -232 -270
-23 9 -840 496 -845 504 -2 3 53 150 122 326 72 183 126 335 126 355 0 27 -15
58 -67 137 -38 56 -97 161 -133 233 -36 72 -75 137 -87 145 -13 8 -164 35
-356 63 -228 34 -336 54 -342 63 -11 18 -11 1000 0 1018 6 9 113 29 342 63
194 29 343 55 356 64 13 8 49 69 82 137 33 67 93 172 133 232 56 86 72 118 72
145 -1 20 -53 167 -122 344 -67 169 -122 316 -122 326 0 13 119 87 436 270
239 139 436 250 438 249 1 -2 94 -125 206 -273 112 -147 214 -275 227 -283 19
-13 44 -14 158 -7 75 5 195 5 270 0 116 -7 139 -6 160 8 13 8 120 137 237 286
147 187 217 269 227 265 23 -9 841 -496 845 -504 3 -4 -54 -157 -125 -340 -90
-231 -129 -341 -125 -357 4 -13 38 -72 77 -131 39 -59 97 -163 130 -230 33
-70 69 -129 82 -137 14 -10 145 -33 342 -61 176 -26 330 -50 343 -55 l22 -10
0 -510 0 -510 -22 -10 c-13 -5 -108 -21 -213 -36 -209 -29 -245 -40 -271 -78
-21 -33 -14 -101 14 -128 35 -35 76 -35 312 -1 245 37 293 52 336 109 53 69
53 68 53 654 0 586 0 585 -53 654 -45 60 -85 72 -420 121 -170 25 -311 46
-312 48 -1 1 -18 36 -39 77 -20 41 -63 118 -96 171 l-58 95 115 295 c63 161
118 314 121 339 8 68 -12 126 -60 176 -29 29 -178 124 -467 295 -234 139 -445
261 -469 272 -34 15 -57 18 -98 14 -98 -10 -118 -29 -330 -307 l-195 -255
-198 0 -199 0 -192 253 c-212 279 -235 300 -331 307 -29 3 -67 0 -83 -5z"/>
<path d="M2445 3619 c-170 -18 -368 -96 -506 -198 -83 -61 -101 -100 -72 -158
18 -38 39 -51 659 -422 31 -19 32 -19 22 -72 -25 -139 -114 -278 -231 -360
-63 -44 -72 -48 -91 -36 -94 60 -553 331 -579 342 -43 18 -98 5 -125 -30 -26
-33 -34 -115 -22 -227 39 -373 261 -692 594 -853 120 -58 240 -92 367 -103
111 -10 152 -8 267 10 l73 11 697 -695 c497 -497 716 -708 762 -737 95 -61
183 -86 305 -86 118 1 199 24 294 85 273 177 343 551 150 803 -18 23 -314 326
-659 672 -668 672 -666 670 -703 805 -9 30 -18 111 -22 180 -11 218 -60 365
-182 548 -72 108 -232 275 -326 340 -213 146 -435 207 -672 181z m337 -246
c48 -17 120 -50 160 -74 92 -56 227 -184 300 -286 126 -175 156 -257 168 -469
10 -165 19 -215 61 -317 60 -146 92 -182 750 -842 408 -410 634 -644 648 -671
45 -91 44 -218 -1 -308 -28 -56 -94 -123 -150 -152 -91 -47 -221 -48 -311 -3
-28 14 -288 267 -777 754 -506 505 -744 736 -763 741 -30 7 -49 4 -162 -20
-306 -67 -656 77 -845 350 -59 84 -118 223 -135 317 l-7 38 243 -147 c280
-168 279 -168 382 -111 160 90 276 210 348 362 50 104 69 179 76 290 5 80 3
93 -15 116 -12 14 -147 101 -301 194 -155 92 -281 171 -281 175 0 14 140 66
255 94 11 3 76 4 145 2 110 -2 136 -6 212 -33z"/>
</g>
</svg>
